<svg width="48" height="35" viewBox="0 0 48 35" fill="none" xmlns="http://www.w3.org/2000/svg">
<path d="M38.7431 12.1287H8.91456C7.77844 12.1287 6.85742 13.0596 6.85742 14.2079V32.9207C6.85742 34.0691 7.77844 34.9999 8.91456 34.9999H38.7431C39.8793 34.9999 40.8003 34.0691 40.8003 32.9207V14.2079C40.8003 13.0596 39.8793 12.1287 38.7431 12.1287Z" fill="#687069"/>
<path d="M22.7606 0.945211C23.4941 0.385776 24.5056 0.385776 25.239 0.945211L39.8827 12.1151C41.4585 13.3169 40.6174 15.8539 38.6436 15.8539H9.35606C7.38223 15.8539 6.54134 13.3169 8.11687 12.1151L22.7606 0.945211Z" fill="#687069"/>
<path d="M23.9991 27.7228C26.2713 27.7228 28.1133 25.8611 28.1133 23.5644C28.1133 21.2678 26.2713 19.406 23.9991 19.406C21.7268 19.406 19.8848 21.2678 19.8848 23.5644C19.8848 25.8611 21.7268 27.7228 23.9991 27.7228Z" fill="white"/>
</svg>
